<?xml version="1.0" standalone="yes"?>
<svg xmlns="http://www.w3.org/2000/svg" width="500" height="500">
<path style="fill:#000000; stroke:none;" d="M0 0L0 210C3.8427 206.037 6.76612 201.319 12 198.97C18.4458 196.077 26.1267 197 33 197L72 197L251 197C245.824 210.523 242.55 225.072 238.579 239C231.255 264.688 223.955 290.415 216.28 316C210.097 336.612 204.463 357.388 198.28 378C194.383 390.99 188.974 404.584 187 418L47 418C31.5463 418 7.23726 422.793 1 404C-2.30616 411.879 0 424.466 0 433L0 500L500 500L500 289C496.688 293.374 494.033 297.531 489 300.175C482.381 303.653 475.236 303 468 303L432 303L250 303C253.766 284.755 260.148 266.895 265.291 249C275.547 213.31 286.033 177.689 296.291 142C300.32 127.983 304.485 114 308.576 100C309.954 95.2814 310.676 87.0043 314.51 83.6034C317.338 81.0948 322.52 82 326 82L356 82L461 82C475.399 82 492.026 79.1544 499 95C502.306 87.121 500 74.5339 500 66L500 0L0 0z"/>
<path style="fill:#8c52ff; stroke:none;" d="M250 303L426 303L469 303C477.4 303 485.828 303.713 492.96 298.362C500.242 292.898 500 285.219 500 277L500 252L500 130C500 117.613 504.445 95.4445 493.895 86.5324C486.916 80.6366 477.485 82 469 82L414 82L342 82L323 82C320.403 82.0012 316.768 81.4415 314.51 83.0278C310.787 85.6431 310.036 93.8928 308.859 98C304.936 111.686 300.757 125.307 296.86 139C286.503 175.382 275.738 211.644 265.291 248C260.139 265.927 252.492 284.495 250 303z"/>
<path style="fill:#000000; stroke:none;" d="M332 117L332 137C332.001 139.579 331.454 143.119 333.028 145.362C334.73 147.787 338.414 148.738 341 149.85C347.648 152.706 354.356 155.414 361 158.281L410 179.281C419.389 183.332 429.037 188.634 439 191L439 193C429.406 195.743 420.177 200.663 411 204.579C394.341 211.687 377.642 218.707 361 225.85L341 234.421C338.527 235.477 334.699 236.442 333.028 238.699C331.425 240.864 332.001 244.478 332 247L332 268C365.836 253.913 398.351 236.549 432 222C440.743 218.22 449.299 214.014 458 210.139C461.159 208.732 466.85 207.108 468.397 203.725C469.308 201.73 468.996 199.13 469 197C469.01 192.094 471.017 181.73 466.682 178.363C463.427 175.835 458.699 174.561 455 172.755C444.144 167.456 432.979 162.732 422 157.691L361 129.691C351.524 125.341 342.051 119.873 332 117z"/>
<path style="fill:#ff5757; stroke:none;" d="M187 418C192.478 394.104 200.699 370.537 207.576 347C222.173 297.04 236.792 247.068 251 197L75 197L30 197C22.6314 197 14.375 196.137 8.01466 200.652C-4.6427 209.637 0 231.423 0 245L0 368C0 382.079 -5.15932 406.672 9.03935 415.211C14.7862 418.667 21.5704 418 28 418L60 418L187 418z"/>
<path style="fill:#000000; stroke:none;" d="M167 232C158.766 236.788 149.656 240.335 141 244.309C122.297 252.895 103.702 261.722 85 270.309C71.9761 276.288 59.1361 282.693 46 288.424C40.9795 290.615 36.2778 293.48 31 295L31 312C31.0048 314.334 30.6108 317.334 32.0278 319.363C34.261 322.56 39.6264 323.76 43 325.309C52.0211 329.45 60.9332 333.82 70 337.861C93.4813 348.326 116.636 359.581 140 370.309C149.267 374.564 158.335 379.709 168 383L168 363C167.999 360.334 168.525 356.766 166.972 354.418C165.496 352.186 162.33 351.292 160 350.281L145 343.719C125.634 335.362 106.391 326.719 87 318.421C80.2043 315.513 67.7528 312.595 64 306C74.5261 304.129 85.2703 297.691 95 293.306C109.909 286.585 124.984 280.198 140 273.719C149.187 269.755 158.371 264.753 168 262C168 253.186 170.411 240.128 167 232z"/>
</svg>
